<?xml version="1.0" standalone="no"?>
<!DOCTYPE svg PUBLIC "-//W3C//DTD SVG 20010904//EN"
 "http://www.w3.org/TR/2001/REC-SVG-20010904/DTD/svg10.dtd">
<svg version="1.0" xmlns="http://www.w3.org/2000/svg"
 width="700.000000pt" height="700.000000pt" viewBox="0 0 700.000000 700.000000"
 preserveAspectRatio="xMidYMid meet">
<metadata>
Created by potrace 1.11, written by Peter Selinger 2001-2013
</metadata>
<g transform="translate(0.000000,700.000000) scale(0.100000,-0.100000)"
fill="#000000" stroke="none">
<path d="M2380 6722 c-113 -15 -241 -97 -286 -184 -18 -34 -22 -59 -23 -126
l-1 -53 -68 69 c-164 166 -435 219 -749 146 -231 -53 -441 -171 -608 -340
-166 -167 -300 -447 -360 -749 -11 -57 -25 -140 -30 -180 -3 -22 -8 -58 -11
-80 -3 -22 -7 -121 -9 -220 -4 -246 21 -400 92 -555 117 -258 279 -377 523
-385 84 -3 121 1 234 21 130 24 243 85 356 191 199 187 342 404 462 698 l48
120 -4 -95 c-3 -52 -8 -149 -11 -215 -3 -66 -8 -140 -10 -165 -3 -25 -7 -88
-10 -140 -3 -52 -8 -106 -10 -120 -2 -14 -7 -61 -11 -105 -4 -44 -8 -87 -9
-95 -1 -8 -5 -53 -10 -100 l-7 -85 -87 -80 c-141 -131 -360 -354 -452 -460
-365 -423 -735 -1055 -864 -1475 -10 -30 -19 -66 -21 -79 -3 -12 -11 -51 -19
-85 -7 -33 -16 -79 -20 -101 -3 -23 -7 -51 -10 -64 -26 -138 -26 -394 0 -573
49 -330 267 -635 541 -759 125 -57 244 -82 389 -83 145 -1 189 5 281 38 88 32
162 79 238 150 62 59 167 195 190 246 6 14 13 27 16 30 8 7 75 154 100 220 55
141 133 439 155 595 4 22 8 47 10 55 6 22 37 241 50 350 2 19 7 58 10 85 9 77
22 212 30 310 3 39 8 90 10 115 7 78 15 182 20 275 3 50 7 117 9 150 5 70 14
203 21 330 3 50 8 122 10 160 3 39 7 106 10 150 3 44 7 105 10 135 2 30 7 91
10 135 17 225 27 318 35 341 17 45 405 349 700 548 l114 78 22 -89 c58 -233
184 -422 333 -497 149 -76 354 -82 563 -18 123 38 199 89 324 218 177 180 304
382 421 664 l43 105 -5 -55 c-3 -30 -7 -116 -10 -190 -3 -74 -7 -157 -9 -185
-3 -27 -7 -95 -10 -150 -4 -55 -8 -111 -11 -125 -2 -14 -7 -61 -10 -105 -3
-44 -8 -91 -10 -105 -2 -14 -7 -52 -10 -85 -13 -129 -12 -126 -88 -195 -83
-74 -351 -341 -417 -415 -205 -227 -422 -539 -650 -935 -39 -68 -135 -263
-168 -340 -172 -407 -222 -865 -138 -1258 34 -157 151 -360 280 -487 172 -169
407 -257 666 -251 63 2 124 6 135 9 11 3 40 10 65 17 108 29 211 93 309 192
199 203 355 585 435 1068 9 52 18 104 20 115 2 11 7 47 11 80 4 32 9 68 11 80
2 11 7 45 10 75 3 30 7 66 9 80 3 14 7 53 10 87 3 34 8 71 10 82 2 11 6 60 10
108 3 48 8 104 10 123 3 19 7 69 10 110 3 41 7 100 10 130 2 30 6 98 10 150 3
52 8 124 10 160 3 36 7 108 10 160 7 135 14 245 20 320 3 36 7 103 10 150 6
93 15 215 20 270 2 19 6 72 10 118 4 46 8 91 10 100 2 9 4 34 4 54 1 30 8 44
37 70 20 18 42 38 48 44 15 14 260 207 314 247 24 18 48 37 55 42 55 47 373
261 532 360 172 106 200 126 223 159 41 60 25 98 -43 102 -37 2 -61 -5 -118
-35 -65 -33 -465 -287 -527 -334 -14 -10 -101 -72 -193 -138 -93 -65 -198
-142 -234 -171 -65 -51 -65 -51 -60 -22 3 16 9 63 12 104 4 41 8 89 10 105 2
17 7 64 10 105 3 41 8 82 10 90 2 8 7 56 10 105 4 50 8 101 10 115 2 14 6 59
10 100 3 41 8 95 10 120 2 25 7 83 10 130 3 47 8 112 11 145 10 129 13 183 19
270 3 50 7 122 10 160 20 328 25 544 13 600 -21 100 -77 169 -155 193 -53 16
-188 7 -257 -17 -72 -26 -151 -84 -190 -139 -27 -39 -51 -147 -39 -178 2 -7 0
-15 -6 -19 -6 -3 -11 -2 -11 3 0 18 -84 98 -140 136 -274 180 -783 113 -1133
-150 -95 -71 -197 -176 -254 -262 -97 -146 -187 -363 -229 -553 -2 -10 -6 -29
-9 -41 -5 -25 -22 -115 -29 -163 -3 -16 -8 -59 -11 -95 -3 -36 -8 -81 -11
-101 -3 -20 -6 -83 -6 -140 l-1 -104 -179 -118 c-157 -105 -505 -350 -518
-367 -3 -3 -22 -19 -42 -34 -31 -23 -37 -25 -34 -9 2 10 7 52 11 93 3 41 8 82
10 90 2 8 7 53 10 100 3 47 8 96 10 110 2 14 6 59 10 100 3 41 8 91 10 110 2
19 6 69 10 110 3 41 8 95 10 120 2 25 6 79 10 120 3 41 7 95 10 120 2 25 7 86
10 135 3 50 8 115 10 145 2 30 7 107 11 170 3 63 8 140 9 170 2 30 6 141 9
245 7 235 -3 285 -74 355 -64 64 -130 80 -260 62z m-670 -297 c63 -14 129 -54
160 -97 55 -76 84 -208 84 -378 0 -81 -10 -227 -18 -280 -2 -14 -7 -47 -11
-73 -4 -27 -8 -58 -11 -70 -2 -12 -6 -39 -9 -62 -18 -127 -81 -297 -185 -504
-108 -215 -209 -364 -332 -492 -315 -328 -516 -214 -573 324 -8 74 -8 293 0
377 21 222 113 523 227 740 205 390 435 568 668 515z m3151 -14 c116 -44 171
-135 195 -326 11 -88 5 -312 -11 -390 -2 -11 -7 -42 -10 -70 -30 -260 -89
-442 -234 -720 -187 -358 -440 -616 -605 -618 -93 -1 -154 56 -209 193 -67
170 -94 587 -51 795 20 93 24 113 28 133 55 258 209 590 364 782 171 211 356
287 533 221z m-2995 -2818 c-6 -124 -9 -203 -21 -513 -3 -80 -7 -192 -10 -250
-3 -58 -7 -163 -10 -235 -7 -181 -22 -465 -30 -570 -3 -33 -7 -94 -10 -135 -3
-41 -8 -93 -10 -115 -3 -22 -7 -69 -10 -105 -7 -81 -14 -154 -20 -200 -2 -19
-7 -57 -10 -85 -4 -27 -10 -75 -15 -105 -5 -30 -12 -73 -16 -95 -5 -31 -49
-212 -68 -280 -3 -10 -10 -29 -48 -123 -38 -96 -111 -177 -221 -245 -227 -139
-465 -67 -639 195 -150 225 -207 577 -153 948 23 161 107 407 203 590 323 620
687 1113 1037 1407 28 23 52 42 53 43 2 0 1 -57 -2 -127z m3110 40 c-6 -85
-11 -203 -21 -493 -12 -315 -15 -400 -20 -490 -3 -52 -7 -149 -10 -215 -5
-132 -13 -280 -20 -365 -3 -30 -7 -93 -10 -140 -4 -47 -8 -101 -10 -120 -2
-19 -6 -71 -10 -115 -3 -44 -8 -93 -10 -110 -2 -16 -7 -57 -10 -90 -31 -300
-92 -566 -166 -724 -68 -146 -220 -268 -369 -298 -128 -26 -255 17 -373 126
-123 114 -210 284 -251 488 -9 43 -18 92 -21 108 -13 65 -13 333 0 430 30 216
80 375 190 600 227 465 560 958 844 1250 106 109 254 244 269 245 2 0 1 -39
-2 -87z"/>
</g>
</svg>
